<?xml version="1.0" encoding="UTF-8" standalone="no"?>
<svg
   width="57"
   height="15"
   viewBox="0 0 57 15"
   version="1.1"
   id="svg1"
   sodipodi:docname="logo-roma-white.svg"
   xml:space="preserve"
   inkscape:version="1.3 (0e150ed6c4, 2023-07-21)"
   xmlns:inkscape="http://www.inkscape.org/namespaces/inkscape"
   xmlns:sodipodi="http://sodipodi.sourceforge.net/DTD/sodipodi-0.dtd"
   xmlns="http://www.w3.org/2000/svg"
   xmlns:svg="http://www.w3.org/2000/svg"><defs
     id="defs1" /><sodipodi:namedview
     id="namedview1"
     pagecolor="#ffffff"
     bordercolor="#000000"
     borderopacity="0.25"
     inkscape:showpageshadow="2"
     inkscape:pageopacity="0.0"
     inkscape:pagecheckerboard="0"
     inkscape:deskcolor="#d1d1d1"
     inkscape:zoom="70.561813"
     inkscape:cx="37.258113"
     inkscape:cy="14.675076"
     inkscape:window-width="1920"
     inkscape:window-height="1009"
     inkscape:window-x="1912"
     inkscape:window-y="-8"
     inkscape:window-maximized="1"
     inkscape:current-layer="svg1" /><g
     id="g1"
     transform="matrix(1.0416308,0,0,1.0416308,2.9045432,23.474502)"
     style="fill:#ffffff"><path
       style="fill:#ffffff;fill-opacity:1"
       d="m 6.8575143,-8.4035582 c 0,-0.013555 0.051407,-0.064962 0.114237,-0.114237 0.103535,-0.081198 0.1058439,-0.078889 0.024646,0.024646 -0.085278,0.1087373 -0.1388832,0.1433172 -0.138883,0.089591 z m 27.7044387,-3.9736498 -0.124355,-0.146876 0.146877,0.124354 c 0.138027,0.116862 0.176593,0.169398 0.124354,0.169398 -0.01239,0 -0.07848,-0.06609 -0.146876,-0.146876 z M 2.9019433,-13.611262 c -0.029466,-0.04768 -0.01784,-0.0576 0.031646,-0.02702 0.043023,0.02659 0.1283438,0.0091 0.1896014,-0.03887 0.1003187,-0.07856 0.1024819,-0.07587 0.021787,0.02702 -0.1041677,0.132824 -0.1777003,0.144585 -0.2430344,0.03887 z M 35.971639,-14.47444 c 0,-0.01356 0.05141,-0.06496 0.114237,-0.114237 0.103535,-0.0812 0.105844,-0.07889 0.02465,0.02465 -0.08528,0.108737 -0.138883,0.143317 -0.138883,0.08959 z m -32.9704854,-2.43961 -0.1582551,-0.179516 0.1795153,0.158256 c 0.098734,0.08704 0.1795154,0.167822 0.1795154,0.179515 0,0.0512 -0.052862,0.0095 -0.2007756,-0.158255 z m 32.0830254,-0.815979 -0.124354,-0.146876 0.146876,0.124354 c 0.08078,0.06839 0.146876,0.134489 0.146876,0.146876 0,0.05224 -0.05253,0.01367 -0.169398,-0.124354 z M 10.08879,-18.627606 c 0.06498,-0.07181 0.13284,-0.130556 0.150792,-0.130556 0.01795,0 -0.02053,0.05875 -0.08551,0.130556 -0.06498,0.07181 -0.13284,0.130557 -0.150792,0.130557 -0.017951,0 0.02053,-0.05875 0.08551,-0.130557 z m 13.963356,-0.277432 -0.124355,-0.146877 0.146876,0.124355 c 0.138028,0.116862 0.176594,0.169398 0.124355,0.169398 -0.01239,0 -0.07848,-0.0661 -0.146876,-0.146876 z M 2.744981,-20.618594 c 0.084323,-0.08976 0.1680021,-0.163196 0.1859536,-0.163196 0.017952,0 -0.036352,0.07344 -0.1206753,0.163196 -0.084323,0.08976 -0.168002,0.163196 -0.1859536,0.163196 -0.017951,0 0.036352,-0.07344 0.1206753,-0.163196 z m 22.880046,-0.7507 c 0.06498,-0.07181 0.13284,-0.130557 0.150791,-0.130557 0.01795,0 -0.02053,0.05875 -0.08551,0.130557 -0.06498,0.07181 -0.132839,0.130556 -0.150791,0.130556 -0.01795,0 0.02053,-0.05875 0.08551,-0.130556 z"
       id="path7" /><path
       style="fill:#ffffff;fill-opacity:1"
       d="m 16.671207,-8.7053035 c 0,-0.269273 0.01152,-0.3794302 0.02561,-0.2447937 0.01408,0.1346365 0.01408,0.3549508 0,0.4895873 -0.01408,0.1346365 -0.02561,0.024479 -0.02561,-0.2447936 z M 2.0113612,-11.232048 c 0.081201,-0.01561 0.1987014,-0.01502 0.2611132,0.0013 0.062412,0.01634 -0.00402,0.02911 -0.1476373,0.02839 -0.1436123,-7.25e-4 -0.1946764,-0.01409 -0.1134759,-0.02971 z m 6.3638737,0.0012 c 0.06283,-0.01642 0.1656437,-0.01642 0.2284741,0 0.06283,0.01642 0.011424,0.02985 -0.1142371,0.02985 -0.1256607,0 -0.1770674,-0.01343 -0.114237,-0.02985 z m 8.7472931,0 c 0.06283,-0.01642 0.165644,-0.01642 0.228474,0 0.06283,0.01642 0.01142,0.02985 -0.114237,0.02985 -0.125661,0 -0.177068,-0.01343 -0.114237,-0.02985 z m 3.297315,-0.0012 c 0.0812,-0.01561 0.198702,-0.01502 0.261114,0.0013 0.06241,0.01634 -0.004,0.02911 -0.147638,0.02839 -0.143612,-7.25e-4 -0.194676,-0.01409 -0.113476,-0.02971 z m 10.084737,0.0012 c 0.06283,-0.01642 0.165644,-0.01642 0.228475,0 0.06283,0.01642 0.01142,0.02985 -0.114237,0.02985 -0.125661,0 -0.177068,-0.01343 -0.114238,-0.02985 z M 4.5955828,-11.773384 c 0,-0.305176 0.011245,-0.430021 0.024988,-0.277433 0.013743,0.152588 0.013743,0.402278 0,0.554866 -0.013743,0.152588 -0.024988,0.02774 -0.024988,-0.277433 z m 6.0760642,-0.946535 c 4.5e-5,-0.825771 0.0094,-1.154585 0.02079,-0.730698 0.01139,0.423887 0.01135,1.099517 -8.4e-5,1.501401 -0.01143,0.401884 -0.02075,0.05507 -0.0207,-0.770703 z m 17.755699,0 c 4.6e-5,-0.825771 0.0094,-1.154585 0.02079,-0.730698 0.01139,0.423887 0.01135,1.099517 -8.4e-5,1.501401 -0.01143,0.401884 -0.02075,0.05507 -0.0207,-0.770703 z m -5.429771,0.767739 c 0.206443,-0.01295 0.544258,-0.01295 0.750701,0 0.206442,0.01295 0.03753,0.02355 -0.37535,0.02355 -0.412886,0 -0.581793,-0.0106 -0.375351,-0.02355 z m -4.569481,-0.257872 c 0.06283,-0.01642 0.165644,-0.01642 0.228474,0 0.06283,0.01642 0.01142,0.02985 -0.114237,0.02985 -0.125661,0 -0.177067,-0.01343 -0.114237,-0.02985 z m 1.250076,-1.032094 c 9.1e-5,-0.538546 0.0102,-0.750173 0.02247,-0.470284 0.01227,0.27989 0.01219,0.720519 -1.66e-4,0.979175 -0.01236,0.258656 -0.02239,0.02965 -0.0223,-0.508891 z m -3.991622,0.522227 c 7.24e-4,-0.143612 0.01409,-0.194677 0.02971,-0.113476 0.01561,0.0812 0.01502,0.198701 -0.0013,0.261113 -0.01634,0.06241 -0.02911,-0.004 -0.02839,-0.147637 z m -8.4270568,-0.03264 c 0,-0.08976 0.014816,-0.126477 0.032926,-0.0816 0.018109,0.04488 0.018109,0.118317 0,0.163196 -0.018109,0.04488 -0.032926,0.0082 -0.032926,-0.0816 z m -2.6635467,-0.554866 c -1.99e-4,-0.323128 0.01084,-0.463546 0.02453,-0.312042 0.013691,0.151505 0.013853,0.415882 3.618e-4,0.587505 -0.013492,0.171623 -0.024693,0.04767 -0.024892,-0.275463 z m 22.8369615,0 c 0.0013,-0.107709 0.01596,-0.143869 0.03251,-0.08036 0.01655,0.06351 0.01546,0.151639 -0.0024,0.195834 -0.01788,0.0442 -0.03142,-0.0078 -0.03009,-0.115479 z m -1.65301,-2.953843 c -0.0812,-0.103535 -0.07889,-0.105844 0.02465,-0.02465 0.108738,0.08528 0.143318,0.138883 0.08959,0.138883 -0.01356,0 -0.06496,-0.05141 -0.114237,-0.114237 z m 0.862098,-2.600253 c 0.0031,-0.07605 0.0186,-0.09151 0.03944,-0.03944 0.01886,0.04712 0.01654,0.103426 -0.0052,0.125117 -0.02169,0.02169 -0.03712,-0.01686 -0.03429,-0.08568 z m 0.549712,-1.398043 c 0.06498,-0.07181 0.13284,-0.130557 0.150792,-0.130557 0.01795,0 -0.02053,0.05875 -0.08551,0.130557 -0.06498,0.07181 -0.13284,0.130556 -0.150791,0.130556 -0.01795,0 0.02053,-0.05875 0.08551,-0.130556 z m 1.159933,-0.502186 c 0.06351,-0.01655 0.151639,-0.01546 0.195835,0.0024 0.04419,0.01788 -0.0078,0.03142 -0.11548,0.03009 -0.107709,-0.0013 -0.143869,-0.01596 -0.08036,-0.03251 z m -6.296519,-1.69659 c 0.04712,-0.01886 0.103425,-0.01654 0.125117,0.0052 0.02169,0.02169 -0.01686,0.03712 -0.08568,0.03428 -0.07605,-0.0031 -0.09151,-0.0186 -0.03944,-0.03944 z"
       id="path6" /><path
       style="fill:#ffffff;fill-opacity:1"
       d="m -2.649512,-8.3462729 c -0.071997,-0.1876215 0.030854,-0.2667767 0.703213,-0.5412021 l 0.6766642,-0.2761824 4.471564,0.00294 4.4715639,0.00294 -0.4895873,0.4524675 -0.4895873,0.4524675 -4.653128,0.00224 c -4.0772838,0.00196 -4.657778,-0.00988 -4.6907025,-0.095677 z m 38.125361,-3.1823171 -0.124354,-0.146876 0.146876,0.124354 c 0.138027,0.116862 0.176593,0.169398 0.124354,0.169398 -0.01239,0 -0.07848,-0.06609 -0.146876,-0.146876 z m -2.384782,-0.03264 c -0.0812,-0.103535 -0.07889,-0.105844 0.02465,-0.02465 0.06283,0.04927 0.114237,0.100681 0.114237,0.114237 0,0.05373 -0.05361,0.01915 -0.138883,-0.08959 z M 31.66327,-11.6022 c 0,-0.01356 0.05141,-0.06496 0.114237,-0.114237 0.103535,-0.0812 0.105844,-0.07889 0.02465,0.02465 -0.08528,0.108737 -0.138884,0.143317 -0.138884,0.08959 z m 1.060915,-0.921889 c 7.25e-4,-0.143613 0.01409,-0.194677 0.02971,-0.113476 0.01561,0.0812 0.01502,0.198701 -0.0013,0.261113 -0.01634,0.06241 -0.02911,-0.004 -0.02839,-0.147637 z M 7.5102973,-13.495266 c 0,-0.01355 0.051407,-0.06496 0.1142371,-0.114237 0.103535,-0.0812 0.1058439,-0.07889 0.024646,0.02465 -0.085278,0.108737 -0.1388832,0.143317 -0.1388832,0.08959 z m -6.56046968,-0.301745 c 0.0649837,-0.07181 0.13283968,-0.130557 0.15079128,-0.130557 0.017952,0 -0.020529,0.05875 -0.085513,0.130557 -0.0649836,0.07181 -0.1328397,0.130556 -0.15079124,0.130556 -0.0179515,0 0.0205293,-0.05875 0.085513,-0.130556 z m 15.11192738,0.04063 c 0,-0.01355 0.05141,-0.06496 0.114237,-0.114237 0.103535,-0.0812 0.105844,-0.07889 0.02465,0.02465 -0.08528,0.108737 -0.138884,0.143317 -0.138884,0.08959 z m 16.66243,-1.770507 c 7.25e-4,-0.143613 0.01409,-0.194677 0.02971,-0.113476 0.01561,0.0812 0.01502,0.198701 -0.0013,0.261113 -0.01634,0.06241 -0.02911,-0.004 -0.02839,-0.147637 z m -21.591823,-3.361833 8.81e-4,-3.361833 0.77791,-0.01849 c 0.427851,-0.01017 0.801024,0.0045 0.829274,0.03264 0.02825,0.02812 -0.314201,0.04211 -0.761001,0.03108 l -0.812365,-0.02004 -0.01779,3.349235 -0.01779,3.349236 z m 6.981996,1.436123 c 0,-1.095044 0.0089,-1.543016 0.01985,-0.995494 0.01092,0.547521 0.01092,1.443466 0,1.990988 -0.01092,0.547522 -0.01985,0.09955 -0.01985,-0.995494 z m 5.715516,1.411476 c 0,-0.01356 0.05141,-0.06496 0.114237,-0.114237 0.103535,-0.0812 0.105844,-0.07889 0.02465,0.02465 -0.08528,0.108738 -0.138883,0.143318 -0.138883,0.08959 z m 7.115335,-0.126336 c 0,-0.01123 0.09547,-0.106704 0.212155,-0.212155 l 0.212154,-0.191728 -0.191728,0.212154 c -0.178718,0.197758 -0.232581,0.24216 -0.232581,0.191729 z M 9.9825464,-16.457102 c -0.081198,-0.103535 -0.078889,-0.105844 0.024647,-0.02465 0.108737,0.08528 0.143317,0.138883 0.08959,0.138883 -0.01356,0 -0.06496,-0.05141 -0.1142342,-0.114237 z m -0.6527831,-0.718061 c -0.081198,-0.103535 -0.078889,-0.105844 0.024646,-0.02465 0.1087372,0.08528 0.1433171,0.138884 0.089591,0.138884 -0.013555,0 -0.064962,-0.05141 -0.114237,-0.114237 z M 2.6094838,-17.30572 2.4512286,-17.485235 2.630744,-17.32698 c 0.1677841,0.147913 0.2094512,0.200775 0.1582551,0.200775 -0.011693,0 -0.092475,-0.08078 -0.1795153,-0.179515 z m 32.1822042,-0.718061 -0.158255,-0.179516 0.179516,0.158255 c 0.09873,0.08704 0.179515,0.167823 0.179515,0.179516 0,0.0512 -0.05286,0.0095 -0.200776,-0.158255 z m -2.06882,-0.342711 c 0,-0.125661 0.01343,-0.177068 0.02985,-0.114237 0.01642,0.06283 0.01642,0.165643 0,0.228474 -0.01642,0.06283 -0.02985,0.01142 -0.02985,-0.114237 z M -2.7197261,-18.85608 c 4.901e-4,-0.179515 0.013167,-0.245205 0.028172,-0.145978 0.015005,0.09923 0.014604,0.246103 -8.91e-4,0.326391 -0.015495,0.08029 -0.027771,-8.97e-4 -0.027281,-0.180413 z m 37.7407231,-0.114237 -0.191729,-0.212154 0.212155,0.191728 c 0.116685,0.105451 0.212154,0.20092 0.212154,0.212155 0,0.05043 -0.05386,0.006 -0.23258,-0.191729 z m -18.948935,-0.310072 c 0,-0.08976 0.01482,-0.126476 0.03293,-0.0816 0.01811,0.04488 0.01811,0.118317 0,0.163196 -0.01811,0.04488 -0.03293,0.0082 -0.03293,-0.0816 z m 18.059544,-0.827932 c 0.04712,-0.01886 0.103426,-0.01654 0.125117,0.0052 0.02169,0.02169 -0.01686,0.03712 -0.08568,0.03429 -0.07605,-0.0031 -0.09151,-0.0186 -0.03944,-0.03944 z m 0.754143,-0.575551 c 1.7e-4,-0.359031 0.01113,-0.497579 0.02436,-0.307884 0.01323,0.189695 0.01309,0.483447 -3.09e-4,0.652783 -0.0134,0.169336 -0.02422,0.01413 -0.02405,-0.344899 z m -1.668039,0.510273 c 0.04712,-0.01886 0.103425,-0.01654 0.125117,0.0052 0.02169,0.02169 -0.01686,0.03712 -0.08568,0.03429 -0.07605,-0.0031 -0.09151,-0.0186 -0.03944,-0.03944 z m -0.418134,-1.065139 c 0,-0.5924 0.0099,-0.834746 0.02199,-0.538546 0.0121,0.2962 0.0121,0.780892 0,1.077092 -0.0121,0.2962 -0.02199,0.05386 -0.02199,-0.538546 z m -30.440825,0.960703 c 0.01496,-0.01016 0.08595,-0.06157 0.157756,-0.114237 0.1207652,-0.08858 0.1238375,-0.0872 0.040966,0.01847 -0.049275,0.06283 -0.1202651,0.114237 -0.1577559,0.114237 -0.037491,0 -0.055925,-0.0083 -0.040966,-0.01847 z m -1.3587223,-0.483714 c 0.063514,-0.01655 0.1516394,-0.01546 0.1958349,0.0024 0.044196,0.01788 -0.00777,0.03142 -0.1154794,0.03009 -0.10770917,-0.0013 -0.14386915,-0.01596 -0.080355,-0.03251 z m 13.6745623,0.002 c 0.04488,-0.01811 0.118317,-0.01811 0.163196,0 0.04488,0.01811 0.0082,0.03293 -0.0816,0.03293 -0.08976,0 -0.126476,-0.01482 -0.0816,-0.03293 z m 19.061266,-0.261113 c 0.04488,-0.01811 0.118317,-0.01811 0.163195,0 0.04488,0.01811 0.0082,0.03292 -0.0816,0.03292 -0.08976,0 -0.126476,-0.01482 -0.0816,-0.03292 z M 4.7686085,-21.401934 c 0.084323,-0.08976 0.1680021,-0.163195 0.1859536,-0.163195 0.017951,0 -0.036352,0.07344 -0.1206753,0.163195 -0.084323,0.08976 -0.1680021,0.163196 -0.1859536,0.163196 -0.017951,0 0.036352,-0.07344 0.1206753,-0.163196 z"
       id="path5" /><path
       style="fill:#ffffff;fill-opacity:1"
       d="m 21.28402,-11.471638 c 0,-0.01356 0.05141,-0.06496 0.114237,-0.114237 0.103535,-0.0812 0.105844,-0.07889 0.02465,0.02465 -0.08528,0.108737 -0.138883,0.143317 -0.138883,0.08959 z m -5.195828,-0.252787 -0.124354,-0.146876 0.146876,0.124354 c 0.138027,0.116863 0.176594,0.169398 0.124354,0.169398 -0.01239,0 -0.07848,-0.06609 -0.146876,-0.146876 z m 2.193026,0.12223 c 0,-0.01356 0.05141,-0.06496 0.114237,-0.114237 0.103535,-0.0812 0.105844,-0.07889 0.02465,0.02465 -0.08528,0.108737 -0.138883,0.143317 -0.138883,0.08959 z m -1.901398,-0.285426 c -0.0812,-0.103535 -0.07889,-0.105844 0.02465,-0.02465 0.108738,0.08528 0.143318,0.138883 0.08959,0.138883 -0.01356,0 -0.06496,-0.05141 -0.114237,-0.114237 z m 1.640285,0.08959 c 0,-0.01355 0.05141,-0.06496 0.114237,-0.114237 0.103535,-0.0812 0.105844,-0.07889 0.02465,0.02465 -0.08528,0.108737 -0.138883,0.143317 -0.138883,0.08959 z m -5.80977,-0.913896 c 0,-0.01356 0.05141,-0.06496 0.114237,-0.114237 0.103535,-0.0812 0.105844,-0.07889 0.02465,0.02465 -0.08528,0.108737 -0.138884,0.143317 -0.138884,0.08959 z m -2.9110865,-0.90557 -0.1243544,-0.146876 0.1468762,0.124354 c 0.1380274,0.116863 0.1765935,0.169398 0.1243544,0.169398 -0.012387,0 -0.078481,-0.06609 -0.1468762,-0.146876 z m 20.4056725,0.05695 c 0,-0.01356 0.05141,-0.06496 0.114237,-0.114237 0.103535,-0.0812 0.105844,-0.07889 0.02465,0.02465 -0.08528,0.108737 -0.138883,0.143317 -0.138883,0.08959 z m -0.228474,-0.236467 c 0.06498,-0.07181 0.13284,-0.130557 0.150791,-0.130557 0.01795,0 -0.02053,0.05875 -0.08551,0.130557 -0.06498,0.07181 -0.132839,0.130556 -0.150791,0.130556 -0.01795,0 0.02053,-0.05875 0.08551,-0.130556 z m -1.963724,-1.598176 c -0.854421,-0.185919 -1.793474,-0.82885 -2.250226,-1.540636 -0.707477,-1.102508 -0.754075,-2.579322 -0.116881,-3.704252 0.45325,-0.800188 1.3912,-1.488012 2.339843,-1.715871 0.461695,-0.110896 1.432667,-0.110696 1.893071,3.9e-4 1.677711,0.404799 2.806967,1.82156 2.806967,3.521614 0,1.629882 -1.213945,3.091929 -2.856205,3.439947 -0.540101,0.114455 -1.287349,0.113964 -1.816569,-0.0012 z m 1.547762,-1.7002 c 0.418665,-0.142653 0.738998,-0.434029 0.950359,-0.864448 0.159119,-0.324032 0.183158,-0.448174 0.179872,-0.928884 -0.0045,-0.661125 -0.155942,-1.03874 -0.564571,-1.407912 -0.356576,-0.322145 -0.659301,-0.436801 -1.161512,-0.439917 -1.072192,-0.0067 -1.779692,0.727934 -1.779692,1.847829 0,0.910311 0.467709,1.591974 1.257043,1.832079 0.277484,0.08441 0.811342,0.06591 1.118501,-0.03875 z m -9.995928,-4.559667 c 0,-0.01356 0.05141,-0.06496 0.114237,-0.114237 0.103535,-0.0812 0.105844,-0.07889 0.02465,0.02465 -0.08528,0.108738 -0.138884,0.143317 -0.138884,0.08959 z"
       id="path4" /><path
       style="fill:#ffffff;fill-opacity:1"
       d="m 7.7525792,-8.7038148 0.5084186,-0.4554594 4.1941312,-0.00149 4.194131,-0.00149 v 0.4569482 0.4569481 H 11.94671 7.2441605 Z m 18.8024878,0.01314 -0.506082,-0.438938 4.497216,-0.016764 4.497217,-0.016764 0.676265,0.2892386 c 0.581435,0.2486798 0.676265,0.3105296 0.676265,0.4410732 v 0.1518347 l -4.667399,0.014629 -4.667399,0.014629 z M -2.4992503,-11.502856 c 0.1018395,-0.138434 0.596416,-0.797857 1.0990589,-1.465385 0.85222043,-1.131778 0.92821391,-1.213914 1.12605079,-1.217063 l 0.21215449,-0.0034 v 1.468762 1.468762 h -0.19583491 c -0.19148303,0 -0.19583492,-0.0073 -0.19583492,-0.326392 V -11.90394 H -1.1335185 -1.813381 l -0.2395934,0.326391 c -0.1952265,0.265952 -0.2758736,0.326392 -0.4355159,0.326392 h -0.1959226 z m 2.04559435,-1.414684 v -0.752486 l -0.50976334,0.670889 c -0.28036981,0.368988 -0.53179301,0.707607 -0.55871811,0.752485 -0.037638,0.06274 0.080199,0.0816 0.5097633,0.0816 h 0.55871815 z m 1.92571005,1.546676 c -0.56798077,-0.269103 -0.89431282,-0.773279 -0.89431282,-1.381694 0,-1.107294 1.17757072,-1.824159 2.20819952,-1.344277 0.3906407,0.181891 0.4678436,0.275945 0.3353001,0.408489 -0.084663,0.08466 -0.1256253,0.07612 -0.343225,-0.07154 -0.1963795,-0.133267 -0.3262653,-0.167679 -0.6328907,-0.167679 -0.4258203,0 -0.6497871,0.09058 -0.9137119,0.369523 -0.49812399,0.526474 -0.39248727,1.427664 0.2144294,1.829302 0.2289479,0.151511 0.3474934,0.18361 0.6742272,0.182561 0.4780093,-0.0015 0.7490662,-0.14244 0.9451498,-0.491323 0.2383926,-0.424163 0.2109623,-0.45394 -0.4181561,-0.45394 -0.5113468,0 -0.5548656,-0.01024 -0.5548656,-0.130557 0,-0.122946 0.043519,-0.130556 0.7465964,-0.130556 h 0.7465964 l -0.036905,0.244793 c -0.057485,0.381306 -0.3478662,0.863952 -0.6335287,1.052994 -0.3439459,0.227613 -1.052613,0.268823 -1.4429034,0.08391 z m 2.774328,-1.349055 v -1.468762 h 0.720158 c 0.7943175,0 1.0681473,0.07469 1.2851378,0.350552 0.3137546,0.398875 0.1886169,1.09096 -0.2370608,1.311086 -0.1108557,0.05733 -0.2015557,0.115835 -0.2015557,0.130021 0,0.01419 0.1468762,0.262606 0.3263915,0.552044 0.1795154,0.289438 0.3263915,0.541455 0.3263915,0.560036 0,0.01858 -0.081647,0.03378 -0.181439,0.03378 -0.1590215,0 -0.2210553,-0.06856 -0.5020758,-0.554866 L 5.461693,-12.360889 H 5.0172333 4.5727736 v 0.554866 c 0,0.548338 -0.00192,0.554866 -0.1631958,0.554866 H 4.2463821 Z m 1.6675639,-0.12759 c 0.1178966,-0.117896 0.1602286,-0.230781 0.1602286,-0.427276 0,-0.196494 -0.042332,-0.309379 -0.1602286,-0.427276 C 5.7674451,-13.848562 5.7031286,-13.86229 5.1632455,-13.86229 H 4.5727736 v 0.587505 0.587505 h 0.5904719 c 0.5398831,0 0.6041996,-0.01373 0.7507005,-0.160229 z m 1.9503086,1.503759 c -1.1331578,-0.493416 -1.2445213,-2.030618 -0.194155,-2.68001 0.2828858,-0.174894 0.3763036,-0.197412 0.8142532,-0.196264 0.5613882,0.0015 0.7798397,0.09034 1.1441821,0.465496 0.9185671,0.945818 0.1915018,2.509455 -1.1628368,2.500816 -0.2202943,-0.0014 -0.4909439,-0.04192 -0.6014435,-0.09004 z m 1.1148046,-0.291899 c 0.4843898,-0.223561 0.6861838,-0.558969 0.6843484,-1.137479 -0.00216,-0.680967 -0.4768102,-1.151252 -1.1640702,-1.153366 -0.4428068,-0.0014 -0.7586414,0.148178 -0.9913014,0.469355 -0.7249328,1.000741 0.3541784,2.336947 1.4710232,1.82149 z m 1.7298748,-1.08427 v -1.468762 h 0.687519 c 0.801607,0 1.076051,0.08737 1.269211,0.404061 0.207083,0.339516 0.227237,0.586875 0.07573,0.929391 -0.180402,0.407829 -0.499415,0.556199 -1.200157,0.558185 l -0.505907,0.0014 v 0.522226 c 0,0.513523 -0.0027,0.522227 -0.163196,0.522227 h -0.163196 z m 1.602286,-0.06231 c 0.123584,-0.123585 0.160229,-0.228767 0.160229,-0.459916 0,-0.231148 -0.03665,-0.336331 -0.160229,-0.459915 -0.145119,-0.145119 -0.212832,-0.160229 -0.718061,-0.160229 h -0.557833 v 0.620144 0.620144 h 0.557833 c 0.505229,0 0.572942,-0.01511 0.718061,-0.160228 z m 1.074125,0.06231 v -1.468762 h 0.979174 0.979175 v 0.163196 0.163195 h -0.78334 -0.783339 v 0.489588 0.489587 h 0.685422 0.685422 v 0.163196 0.163196 h -0.685422 -0.685422 v 0.489587 0.489587 h 0.783339 0.78334 v 0.163196 0.163196 h -0.979175 -0.979174 z m 3.263915,1.364842 c -0.543927,-0.235234 -0.913896,-0.787554 -0.913896,-1.364338 0,-0.647988 0.287873,-1.098445 0.881257,-1.378967 0.706701,-0.334094 1.63236,-0.0629 1.964551,0.575562 0.121186,0.232914 0.117576,0.248035 -0.0592,0.248035 -0.09265,0 -0.207936,-0.07712 -0.298592,-0.199737 -0.236648,-0.320084 -0.511853,-0.452525 -0.940894,-0.452802 -0.728686,-4.69e-4 -1.220727,0.479607 -1.220727,1.191044 0,1.088518 1.322432,1.614343 2.084671,0.828907 0.230766,-0.237789 0.526462,-0.34596 0.526462,-0.19259 0,0.130454 -0.496413,0.611207 -0.750701,0.727018 -0.321503,0.146424 -0.955106,0.155318 -1.272927,0.01787 z m 3.236174,-0.04403 c -0.159729,-0.0909 -0.313372,-0.254147 -0.40799,-0.433503 -0.140352,-0.26605 -0.151773,-0.365522 -0.151773,-1.321885 v -1.034186 h 0.157579 0.157579 l 0.02194,1.060772 c 0.01907,0.922219 0.0386,1.085384 0.149516,1.249194 0.326085,0.481591 1.136055,0.470209 1.425648,-0.02003 0.09255,-0.156677 0.111369,-0.366064 0.111369,-1.239233 v -1.0507 h 0.195835 0.195835 v 0.981271 c 0,1.04534 -0.05627,1.308731 -0.345827,1.618853 -0.229025,0.245289 -0.46884,0.337478 -0.8749,0.336326 -0.270304,-7.67e-4 -0.451876,-0.04278 -0.634807,-0.146876 z m 2.116624,0.09899 c -1.3e-5,-0.02693 0.269474,-0.68787 0.598859,-1.468762 0.566112,-1.342112 0.608356,-1.419803 0.772009,-1.419803 0.163652,0 0.205896,0.07769 0.772008,1.419803 0.329385,0.780892 0.598872,1.441835 0.598859,1.468762 -1.3e-5,0.02693 -0.07065,0.04896 -0.156978,0.04896 -0.128691,0 -0.183751,-0.06465 -0.305764,-0.359031 l -0.14881,-0.359031 H 23.372926 22.61361 l -0.14881,0.359031 c -0.122013,0.294379 -0.177073,0.359031 -0.305764,0.359031 -0.08632,0 -0.156965,-0.02203 -0.156978,-0.04896 z m 1.959075,-0.979175 c 0.0014,-0.09577 -0.546221,-1.387164 -0.588207,-1.387164 -0.04199,0 -0.589583,1.291391 -0.588208,1.387164 3.87e-4,0.02693 0.26508,0.04896 0.588208,0.04896 0.323127,0 0.587821,-0.02203 0.588207,-0.04896 z m 1.304863,-0.440628 v -1.468762 h 0.720158 c 0.47909,0 0.795459,0.03146 0.945107,0.09399 0.60247,0.251728 0.665204,1.276907 0.09614,1.571179 -0.107102,0.05538 -0.19473,0.114115 -0.19473,0.130512 0,0.0164 0.112611,0.213926 0.250246,0.438952 0.441038,0.721074 0.435439,0.702892 0.216425,0.702892 -0.170881,0 -0.223711,-0.05766 -0.508204,-0.554653 l -0.317498,-0.554652 -0.440628,-2.13e-4 -0.440629,-2.14e-4 v 0.554866 c 0,0.548338 -0.0019,0.554866 -0.163196,0.554866 h -0.163196 z m 1.523771,-0.03984 c 0.32738,-0.149164 0.408082,-0.678016 0.143793,-0.942304 -0.1465,-0.146501 -0.210817,-0.160229 -0.7507,-0.160229 h -0.590472 v 0.587505 0.587505 h 0.519155 c 0.285535,0 0.590736,-0.03261 0.678224,-0.07248 z m 1.283197,0.03984 v -1.468762 h 0.163195 0.163196 v 1.468762 1.468762 h -0.163196 -0.163195 z m 1.838133,1.301025 c -0.908391,-0.459266 -1.109477,-1.548481 -0.42618,-2.308471 0.702405,-0.781243 1.918517,-0.672444 2.47038,0.221013 0.172239,0.278851 0.197561,0.380406 0.197561,0.792332 0,0.420519 -0.02174,0.503415 -0.197658,0.753697 -0.108712,0.154666 -0.323534,0.369679 -0.477382,0.477808 -0.236347,0.166111 -0.352474,0.199955 -0.748877,0.218255 -0.405561,0.01872 -0.516419,-0.0022 -0.817844,-0.154634 z m 1.200008,-0.216078 c 0.869525,-0.39497 0.982926,-1.546823 0.208751,-2.120349 -0.273061,-0.202289 -0.924921,-0.227196 -1.274787,-0.04871 -0.369684,0.188599 -0.601261,0.591983 -0.601261,1.04734 0,0.569588 0.267213,0.973201 0.760831,1.1492 0.342311,0.122051 0.594073,0.114418 0.906466,-0.02748 z m 4.038352,-0.22001 -0.124354,-0.146876 0.146876,0.124354 c 0.08078,0.0684 0.146877,0.13449 0.146877,0.146877 0,0.05224 -0.05254,0.01367 -0.169399,-0.124355 z m -14.877251,-3.490075 c -0.692174,-0.09572 -1.834677,-0.536794 -1.779395,-0.686946 0.01668,-0.04531 0.139663,-0.412172 0.273289,-0.815241 l 0.242955,-0.732853 0.370462,0.186814 c 0.865868,0.436633 2.029677,0.603289 2.586944,0.370448 0.305855,-0.127794 0.468541,-0.385218 0.374244,-0.592178 -0.116399,-0.255469 -0.319578,-0.342013 -1.368031,-0.582717 -1.425484,-0.327263 -1.790729,-0.51924 -2.148118,-1.129078 -0.228585,-0.390052 -0.28022,-1.073362 -0.122188,-1.616974 0.147645,-0.507881 0.682436,-1.058623 1.225129,-1.26167 1.04896,-0.392467 2.64202,-0.319215 3.984937,0.183235 0.205914,0.07704 0.374388,0.17463 0.374388,0.216862 0,0.04223 -0.105895,0.394584 -0.235323,0.783005 -0.19423,0.5829 -0.254075,0.69859 -0.342711,0.662522 -1.196558,-0.486906 -2.447437,-0.624755 -2.86331,-0.315543 -0.256075,0.190398 -0.287246,0.560799 -0.05974,0.709868 0.08905,0.05835 0.646364,0.203704 1.238467,0.323009 1.899689,0.382775 2.438229,0.789957 2.507845,1.896145 0.06962,1.106218 -0.678667,1.985807 -1.970426,2.316183 -0.393559,0.100656 -0.701433,0.129445 -1.304369,0.121973 -0.434069,-0.0054 -0.877343,-0.02197 -0.985052,-0.03686 z m 12.761909,-1.087733 c 0,-0.01356 0.05141,-0.06496 0.114237,-0.114237 0.103535,-0.0812 0.105844,-0.07889 0.02465,0.02465 -0.08528,0.108737 -0.138883,0.143317 -0.138883,0.08959 z M 9.1339284,-17.370998 c -0.081198,-0.103535 -0.078889,-0.105844 0.024646,-0.02465 0.1087373,0.08528 0.1433172,0.138884 0.089591,0.138884 -0.013555,0 -0.064962,-0.05141 -0.114237,-0.114237 z m -2.9680386,-0.163196 -0.1243543,-0.146876 0.1468761,0.124354 c 0.1380274,0.116862 0.1765936,0.169398 0.1243544,0.169398 -0.012387,0 -0.078481,-0.06609 -0.1468762,-0.146876 z m 28.3307842,-0.78334 -0.124354,-0.146876 0.146876,0.124354 c 0.08078,0.06839 0.146876,0.13449 0.146876,0.146877 0,0.05224 -0.05253,0.01367 -0.169398,-0.124355 z m 0.813855,-0.35903 c -0.0812,-0.103535 -0.07889,-0.105844 0.02465,-0.02465 0.06283,0.04928 0.114237,0.100682 0.114237,0.114237 0,0.05373 -0.05361,0.01915 -0.138883,-0.08959 z M 3.3324858,-21.271377 c 0.084323,-0.08976 0.1680021,-0.163196 0.1859536,-0.163196 0.017951,0 -0.036352,0.07344 -0.1206753,0.163196 -0.084323,0.08976 -0.1680021,0.163196 -0.1859536,0.163196 -0.017952,0 0.036352,-0.07344 0.1206753,-0.163196 z m -5.0917079,-0.05729 c 0,-0.01356 0.051407,-0.06496 0.1142371,-0.114237 0.103535,-0.0812 0.1058439,-0.07889 0.024646,0.02465 -0.085278,0.108737 -0.1388832,0.143317 -0.1388832,0.08959 z"
       id="path3" /><path
       style="fill:#ffffff;fill-opacity:1"
       d="m 17.04093,-8.7053035 v -0.4569482 h 4.202215 4.202215 l 0.416225,0.3666456 c 0.228924,0.2016551 0.459239,0.4072817 0.511811,0.4569481 0.08143,0.076933 -0.602322,0.090303 -4.61844,0.090303 H 17.04093 Z m 16.165901,-2.8073645 c -0.307944,-0.270378 -0.434031,-0.567937 -0.432756,-1.021282 0.0019,-0.673048 0.372183,-1.12481 0.96896,-1.182153 0.426003,-0.04093 0.749171,0.114646 1.331027,0.640782 l 0.440628,0.398432 v -0.560061 -0.560061 h 0.424309 0.424309 v 1.240288 1.240287 h -0.301667 c -0.294261,0 -0.32129,-0.01825 -1.101029,-0.743539 -0.439649,-0.408947 -0.860919,-0.763077 -0.936155,-0.786956 -0.379638,-0.120493 -0.550757,0.357143 -0.243025,0.678346 l 0.159812,0.166808 -0.19784,0.342671 c -0.108811,0.188468 -0.223768,0.34267 -0.255458,0.34267 -0.03169,0 -0.158192,-0.0883 -0.281115,-0.196232 z m 0.675902,-2.650099 c -0.371576,-0.09941 -0.711165,-0.328708 -0.939263,-0.63422 -0.161208,-0.21592 -0.220685,-0.902172 -0.107829,-1.24413 0.196124,-0.594261 1.066767,-1.010126 1.958292,-0.935384 1.032481,0.08656 1.629582,0.617444 1.63322,1.452103 0.0047,1.073082 -1.204412,1.72012 -2.54442,1.361631 z m 1.528902,-1.000148 c 0.111837,-0.105141 0.168334,-0.227298 0.168334,-0.363971 0,-0.136673 -0.0565,-0.258831 -0.168334,-0.363972 -0.148797,-0.139887 -0.23782,-0.160506 -0.767021,-0.177649 -0.51005,-0.01652 -0.630095,2.47e-4 -0.81084,0.113277 -0.179231,0.112083 -0.212154,0.171407 -0.212154,0.382268 0,0.479112 0.227275,0.609278 1.022994,0.585895 0.530601,-0.01559 0.61783,-0.03559 0.767021,-0.175848 z M 0.16648795,-15.390261 c -1.19084385,-0.273918 -2.17314025,-1.096373 -2.61907275,-2.192892 -0.2103708,-0.517288 -0.2848542,-1.497497 -0.157954,-2.078691 0.2697611,-1.235486 1.270845,-2.266446 2.58460456,-2.661738 0.52983106,-0.15942 1.61752754,-0.15942 2.14735864,0 0.4504478,0.135533 1.0341271,0.424264 1.2947065,0.640456 l 0.1815625,0.150636 -0.5732324,0.60942 -0.5732324,0.60942 -0.4024364,-0.209461 c -0.3484639,-0.181369 -0.4710307,-0.21015 -0.9138963,-0.214601 -1.07938458,-0.01085 -1.75668732,0.623351 -1.83410259,1.717385 -0.0360735,0.509791 0.0456091,0.845257 0.30565392,1.255305 0.22702094,0.357975 0.73349591,0.6779 1.17988176,0.745297 0.42154371,0.06365 1.07263401,-0.06438 1.38767371,-0.272864 l 0.2661468,-0.176127 0.587084,0.59665 0.587084,0.59665 -0.1442564,0.153554 c -0.1824605,0.19422 -0.6746652,0.463284 -1.1629207,0.635711 -0.4917474,0.17366 -1.58889072,0.222806 -2.14065245,0.09589 z m 6.37879905,-0.0028 c -1.5445621,-0.373991 -2.6532054,-1.697118 -2.7375971,-3.267226 -0.091544,-1.70317 0.9083289,-3.124315 2.5602371,-3.63893 0.544055,-0.169488 1.6169011,-0.197515 2.1868232,-0.05713 0.883179,0.217549 1.5360998,0.680609 1.8717608,1.327478 0.155376,0.299433 0.179361,0.422482 0.181752,0.932458 0.0025,0.52526 -0.01799,0.629001 -0.193081,0.979168 -0.227666,0.455324 -0.5866352,0.757525 -1.0962923,0.922923 -0.2673314,0.08676 -0.6705829,0.11625 -1.8901902,0.138248 -0.8526979,0.01538 -1.5503598,0.04781 -1.5503598,0.07207 0,0.129318 0.3588282,0.540544 0.6262055,0.717647 0.3770784,0.249766 0.6012701,0.29456 1.2926534,0.258272 0.4553099,-0.0239 0.5979189,-0.06086 0.9062236,-0.234852 l 0.3658822,-0.206491 0.5250837,0.566412 0.5250839,0.566413 -0.1384683,0.147393 c -0.210444,0.224007 -1.0957761,0.660125 -1.5642546,0.770557 -0.5004629,0.117971 -1.3962774,0.120646 -1.8714621,0.0056 z m 1.9464809,-4.378144 c 0.1093095,-0.05653 0.2103891,-0.173777 0.2352698,-0.27291 0.1407508,-0.560796 -0.8180368,-0.966119 -1.6874662,-0.713369 -0.3926022,0.114132 -0.9048561,0.519204 -1.1159637,0.882462 l -0.1179276,0.202921 h 1.2472201 c 0.9876061,0 1.2871124,-0.02063 1.4388676,-0.0991 z m 24.7910631,2.482867 c -0.676384,-0.459615 -0.677321,-1.716552 -0.0016,-2.134176 0.528375,-0.326553 1.148175,-0.145192 1.806689,0.528661 0.178165,0.182316 0.347073,0.331484 0.37535,0.331484 0.02828,0 0.05141,-0.24969 0.05141,-0.554866 v -0.554866 h 0.424309 0.424309 v 1.240288 1.240288 h -0.324989 c -0.324253,0 -0.326699,-0.0016 -1.081179,-0.717843 -0.753123,-0.714933 -0.943106,-0.834029 -1.200253,-0.752414 -0.204304,0.06484 -0.190616,0.508615 0.02059,0.66755 l 0.155857,0.117285 -0.153236,0.293752 c -0.250459,0.480128 -0.236659,0.471945 -0.497267,0.294857 z m 2.166357,-2.939021 -0.208478,-0.364381 0.169629,-0.157207 c 0.112671,-0.10442 0.16963,-0.225453 0.16963,-0.360451 0,-0.32545 -0.103779,-0.455773 -0.362943,-0.455773 -0.297583,0 -0.355119,0.15 -0.355119,0.925815 v 0.590924 l -0.473267,-0.03937 c -0.260298,-0.02165 -0.715614,-0.05827 -1.011814,-0.08138 l -0.538546,-0.04201 v -1.036024 -1.036024 h 0.424309 0.424309 v 0.652783 0.652783 h 0.195835 c 0.182714,0 0.195859,-0.0164 0.196199,-0.244793 0.0013,-0.877001 0.678312,-1.412866 1.504082,-1.190509 0.520257,0.14009 0.845573,0.646752 0.845573,1.316934 0,0.375677 -0.286835,0.937954 -0.564976,1.107512 l -0.205946,0.125546 z m -19.787429,-0.211762 c -0.0812,-0.103535 -0.07889,-0.105844 0.02465,-0.02465 0.06283,0.04928 0.114237,0.100682 0.114237,0.114237 0,0.05373 -0.0536,0.01915 -0.138883,-0.08959 z"
       id="path2" /><path
       style="fill:#ffffff;fill-opacity:1"
       d="m 11.165882,-18.858089 v -3.363842 l 0.799117,0.01833 0.799117,0.01833 0.03382,0.195835 c 0.0186,0.107709 0.06291,0.195227 0.09846,0.194484 0.03555,-7.43e-4 0.242424,-0.0937 0.459719,-0.206579 1.084958,-0.563587 2.274888,-0.605971 3.273296,-0.116591 0.726149,0.35593 1.090743,0.843094 1.329434,1.776368 0.112771,0.440931 0.126535,0.73148 0.126535,2.671128 v 2.176381 h -0.979175 -0.979174 v -1.944634 c 0,-2.063914 -0.04889,-2.496248 -0.326362,-2.885919 -0.194603,-0.273295 -0.553892,-0.416301 -1.044483,-0.415732 -0.486578,5.65e-4 -0.821189,0.142928 -1.155381,0.491568 -0.428053,0.446557 -0.441658,0.527036 -0.464463,2.747409 l -0.02062,2.007308 h -0.974923 -0.974923 z"
       id="path1" /></g></svg>
